P3
16 16
255
130 130 130 125 125 125 127 127 127 136 136 136 140 140 140 141 141 141 141 141 141 140 140 140 139 139 139 139 139 139 139 139 139 139 139 139 139 139 139 139 139 139 139 139 139 139 139 139
131 131 131 126 126 126 127 127 127 136 136 136 140 140 140 141 141 141 142 142 142 140 140 140 141 141 141 140 140 140 140 140 140 140 140 140 140 140 140 139 139 139 139 139 139 139 139 139
132 132 132 126 126 126 129 129 129 136 136 136 140 140 140 142 142 142 142 142 142 141 141 141 142 142 142 142 142 142 142 142 142 142 142 142 141 141 141 141 141 141 141 141 141 140 140 140
135 135 135 129 129 129 131 131 131 138 138 138 142 142 142 142 142 142 144 144 144 142 142 142 142 142 142 142 142 142 142 142 142 142 142 142 142 142 142 142 142 142 142 142 142 142 142 142
139 139 139 133 133 133 134 134 134 141 141 141 144 144 144 145 145 145 146 146 146 145 145 145 142 142 142 142 142 142 142 142 142 142 142 142 144 144 144 144 144 144 144 144 144 144 144 144
142 142 142 136 136 136 137 137 137 144 144 144 146 146 146 147 147 147 147 147 147 145 145 145 144 144 144 144 144 144 144 144 144 145 145 145 145 145 145 145 145 145 145 145 145 145 145 145
144 144 144 139 139 139 140 140 140 146 146 146 148 148 148 148 148 148 147 147 147 144 144 144 147 147 147 146 146 146 146 146 146 146 146 146 146 146 146 146 146 146 146 146 146 146 146 146
146 146 146 140 140 140 141 141 141 147 147 147 148 148 148 148 148 148 146 146 146 142 142 142 148 148 148 148 148 148 148 148 148 148 148 148 147 147 147 146 146 146 146 146 146 146 146 146
144 144 144 142 142 142 140 140 140 142 142 142 148 148 148 147 147 147 146 146 146 148 148 148 148 148 148 148 148 148 148 148 148 148 148 148 150 150 150 150 150 150 150 150 150 150 150 150
142 142 142 140 140 140 139 139 139 142 142 142 148 148 148 148 148 148 148 148 148 151 151 151 148 148 148 148 148 148 150 150 150 150 150 150 150 150 150 150 150 150 150 150 150 150 150 150
142 142 142 141 141 141 139 139 139 142 142 142 148 148 148 151 151 151 150 150 150 152 152 152 151 151 151 151 151 151 151 151 151 151 151 151 151 151 151 151 151 151 151 151 151 151 151 151
147 147 147 145 145 145 141 141 141 142 142 142 148 148 148 151 151 151 150 150 150 152 152 152 152 152 152 152 152 152 152 152 152 152 152 152 152 152 152 151 151 151 151 151 151 151 151 151
150 150 150 148 148 148 142 142 142 142 142 142 148 148 148 152 152 152 152 152 152 152 152 152 153 153 153 153 153 153 153 153 153 153 153 153 153 153 153 152 152 152 152 152 152 151 151 151
152 152 152 150 150 150 144 144 144 142 142 142 148 148 148 154 154 154 155 155 155 155 155 155 155 155 155 155 155 155 155 155 155 155 155 155 154 154 154 154 154 154 153 153 153 153 153 153
154 154 154 151 151 151 145 145 145 142 142 142 150 150 150 155 155 155 156 156 156 156 156 156 156 156 156 156 156 156 156 156 156 156 156 156 155 155 155 155 155 155 155 155 155 155 155 155
155 155 155 154 154 154 146 146 146 142 142 142 150 150 150 155 155 155 155 155 155 155 155 155 158 158 158 158 158 158 158 158 158 158 158 158 158 158 158 156 156 156 156 156 156 155 155 155
